<svg xmlns="http://www.w3.org/2000/svg" viewBox="0 0 32 32"><defs><style>.cls-1{fill:#231f20;}</style></defs><g id="delivery"><path class="cls-1" d="M29.59,13.21l-3.9-3.85A1.31,1.31,0,0,0,24.8,9H19V6.38A1.3,1.3,0,0,0,17.81,5H3.21A1.3,1.3,0,0,0,2,6.38V20.62A1.3,1.3,0,0,0,3.21,22H4a2.74,2.74,0,0,0,0,.5,3.5,3.5,0,0,0,7,0,2.74,2.74,0,0,0,0-.5H21a2.74,2.74,0,0,0,0,.5,3.5,3.5,0,0,0,7,0,2.74,2.74,0,0,0,0-.5h.74A1.35,1.35,0,0,0,30,20.61v-6.4A1.4,1.4,0,0,0,29.59,13.21ZM7.5,24A1.5,1.5,0,0,1,6,22.5a1.39,1.39,0,0,1,.09-.5,1.4,1.4,0,0,1,.69-.8h0a1.64,1.64,0,0,1,.33-.14h0A1.58,1.58,0,0,1,7.5,21a1.5,1.5,0,0,1,0,3Zm2.44-4a3.48,3.48,0,0,0-4.88,0H4V7H17V20ZM26,22.5A1.5,1.5,0,1,1,24.5,21a1.27,1.27,0,0,1,.39.06,1.46,1.46,0,0,1,1,.94A1.39,1.39,0,0,1,26,22.5ZM28,20H26.94a3.48,3.48,0,0,0-4.87,0H19V11h5.57L28,14.53Z"/></g></svg>