<svg viewBox="0 0 48 48" xmlns="http://www.w3.org/2000/svg"><path d="m23.9826 4.5008a12.2348 12.2348 0 0 0 -12.2264 12.2511 12.0459 12.0459 0 0 0 2.3065 7.1329l.33.4621 6.3608 9.016a2.9975 2.9975 0 0 0 2.472 1.2869h1.549a2.9958 2.9958 0 0 0 2.472-1.2869l6.36-9.016.33-.4621a12.1136 12.1136 0 0 0 2.3072-7.1322 12.2853 12.2853 0 0 0 -12.2611-12.2526m5.0424 15.8839-.33.462-4.68 6.6376-4.712-6.6376-.33-.4954a6.2888 6.2888 0 0 1 -1.1861-3.632 6.1953 6.1953 0 0 1 6.1818-6.2085h.0139a6.1952 6.1952 0 0 1 6.196 6.1942v.0139a6.3605 6.3605 0 0 1 -1.1536 3.6654m-8.47 19.781a3.3454 3.3454 0 0 1 3.395-3.3681 3.2978 3.2978 0 0 1 3.3951 3.3351v.0334a3.3952 3.3952 0 0 1 -6.7894 0" fill="none" stroke="#000" stroke-linecap="round" stroke-linejoin="round"/></svg>